<?xml version="1.0" encoding="UTF-8" standalone="no"?>
<!-- Created with Inkscape (http://www.inkscape.org/) -->

<svg
   sodipodi:docname="one-legged-time-trial.svg"
   inkscape:version="1.2.2 (b0a8486541, 2022-12-01)"
   id="svg5"
   version="1.1"
   viewBox="0 0 140 140"
   height="140mm"
   width="140mm"
   xmlns:inkscape="http://www.inkscape.org/namespaces/inkscape"
   xmlns:sodipodi="http://sodipodi.sourceforge.net/DTD/sodipodi-0.dtd"
   xmlns="http://www.w3.org/2000/svg"
   xmlns:svg="http://www.w3.org/2000/svg"
   xmlns:ns2="http://www.iki.fi/pav/software/textext/">
  <sodipodi:namedview
     id="namedview7"
     pagecolor="#ffffff"
     bordercolor="#666666"
     borderopacity="1.0"
     inkscape:showpageshadow="2"
     inkscape:pageopacity="0.0"
     inkscape:pagecheckerboard="0"
     inkscape:deskcolor="#d1d1d1"
     inkscape:document-units="mm"
     showgrid="false"
     inkscape:zoom="1.1893044"
     inkscape:cx="156.39394"
     inkscape:cy="206.42318"
     inkscape:window-width="1920"
     inkscape:window-height="1011"
     inkscape:window-x="0"
     inkscape:window-y="32"
     inkscape:window-maximized="1"
     inkscape:current-layer="layer1" />
  <defs
     id="defs2">
    <marker
       style="overflow:visible"
       id="Arrow5"
       refX="0"
       refY="0"
       orient="auto-start-reverse"
       inkscape:stockid="Arrow5"
       markerWidth="5.8874259"
       markerHeight="6.6094756"
       viewBox="0 0 5.8874262 6.6094758"
       inkscape:isstock="true"
       inkscape:collect="always"
       preserveAspectRatio="xMidYMid">
      <path
         transform="scale(0.5)"
         style="fill:context-stroke;fill-rule:evenodd;stroke:context-stroke;stroke-width:1pt"
         d="m 6,0 c -3,1 -7,3 -9,5 0,0 0,-4 2,-5 -2,-1 -2,-5 -2,-5 2,2 6,4 9,5 z"
         id="path8893" />
    </marker>
    <marker
       style="overflow:visible"
       id="Arrow5-1"
       refX="0"
       refY="0"
       orient="auto-start-reverse"
       inkscape:stockid="Arrow5"
       markerWidth="5.8874259"
       markerHeight="6.6094756"
       viewBox="0 0 5.8874262 6.6094758"
       inkscape:isstock="true"
       inkscape:collect="always"
       preserveAspectRatio="xMidYMid">
      <path
         transform="scale(0.5)"
         style="fill:context-stroke;fill-rule:evenodd;stroke:context-stroke;stroke-width:1pt"
         d="m 6,0 c -3,1 -7,3 -9,5 0,0 0,-4 2,-5 -2,-1 -2,-5 -2,-5 2,2 6,4 9,5 z"
         id="path8893-2" />
    </marker>
  </defs>
  <g
     inkscape:label="Layer 1"
     inkscape:groupmode="layer"
     id="layer1"
     transform="translate(-23.413528,-45.248899)">
    <circle
       style="fill:none;stroke:#000000;stroke-width:0.5;stroke-linejoin:round;stroke-dasharray:0.5, 0.5;stroke-dashoffset:0"
       id="path294"
       cx="117.69432"
       cy="129.20461"
       r="17.227234" />
    <circle
       style="fill:none;stroke:#666666;stroke-width:0.5;stroke-linejoin:round;stroke-dasharray:none;stroke-dashoffset:0"
       id="path294-2"
       cx="66.419487"
       cy="129.20361"
       r="6.0306044" />
    <path
       style="fill:none;stroke:#000000;stroke-width:0.5;stroke-linejoin:round;stroke-dasharray:none;stroke-dashoffset:0;marker-end:url(#Arrow5)"
       id="path294-56"
       sodipodi:type="arc"
       sodipodi:cx="123.50576"
       sodipodi:cy="110.08391"
       sodipodi:rx="12.911439"
       sodipodi:ry="12.911439"
       sodipodi:start="3.8550144"
       sodipodi:end="4.967516"
       sodipodi:open="true"
       sodipodi:arc-type="arc"
       d="M 113.74307,101.63434 A 12.911439,12.911439 0 0 1 126.7642,97.590396" />
    <path
       style="fill:none;stroke:#000000;stroke-width:0.5;stroke-linejoin:round;stroke-dasharray:none;stroke-dashoffset:0;marker-start:url(#Arrow5)"
       id="path294-3"
       sodipodi:type="arc"
       sodipodi:cx="114.86958"
       sodipodi:cy="129.56229"
       sodipodi:rx="29.157145"
       sodipodi:ry="29.157145"
       sodipodi:start="5.6987492"
       sodipodi:end="6.2470598"
       sodipodi:open="true"
       sodipodi:arc-type="arc"
       d="m 139.18732,113.47544 a 29.157145,29.157145 0 0 1 4.82038,15.03376" />
    <path
       style="fill:none;stroke:#000000;stroke-width:0.5;stroke-linejoin:round;stroke-dasharray:none;stroke-dashoffset:0;marker-start:url(#Arrow5-1)"
       id="path294-3-7"
       sodipodi:type="arc"
       sodipodi:cx="131.64693"
       sodipodi:cy="117.32906"
       sodipodi:rx="17.602388"
       sodipodi:ry="17.602388"
       sodipodi:start="3.9777399"
       sodipodi:end="5.5718524"
       sodipodi:open="true"
       sodipodi:arc-type="arc"
       d="m 119.84757,104.26693 a 17.602388,17.602388 0 0 1 12.89716,-4.505988 17.602388,17.602388 0 0 1 12.23587,6.076508" />
    <circle
       style="fill:none;stroke:#000000;stroke-width:0.5;stroke-linejoin:round;stroke-dasharray:none;stroke-dashoffset:0"
       id="path294-5"
       cx="66.419891"
       cy="129.20461"
       r="39.58136" />
    <path
       style="fill:none;stroke:#000000;stroke-width:0.5;stroke-linejoin:round;stroke-dasharray:none;stroke-dashoffset:0;marker-start:url(#Arrow5)"
       id="path294-5-9"
       sodipodi:type="arc"
       sodipodi:cx="66.419891"
       sodipodi:cy="129.20461"
       sodipodi:rx="44.511284"
       sodipodi:ry="44.511284"
       sodipodi:start="4.6651121"
       sodipodi:end="5.2794626"
       sodipodi:open="true"
       sodipodi:arc-type="arc"
       d="m 64.316321,84.743056 a 44.511284,44.511284 0 0 1 26.01352,6.917326" />
    <path
       style="fill:none;stroke:#3dcfc2;stroke-width:2;stroke-linecap:butt;stroke-linejoin:miter;stroke-dasharray:none;stroke-opacity:1"
       d="M 130.51092,118.23875 117.66462,129.37222 89.873122,56.952344"
       id="path236"
       sodipodi:nodetypes="ccc" />
    <path
       style="fill:none;stroke:#ffd90f;stroke-width:4;stroke-linecap:round;stroke-linejoin:round;stroke-dasharray:none;stroke-opacity:1"
       d="m 89.757592,56.773901 54.976468,14.562913 -20.6588,39.373126"
       id="path3990" />
    <path
       style="fill:none;stroke:#ffd90f;stroke-width:4;stroke-linecap:round;stroke-linejoin:miter;stroke-dasharray:none;stroke-opacity:1"
       d="M 133.07314,118.97144 120.592,107.64469"
       id="path238"
       sodipodi:nodetypes="cc" />
    <path
       style="fill:none;stroke:#800080;stroke-width:1;stroke-linecap:round;stroke-linejoin:round;stroke-dasharray:none;stroke-opacity:1"
       d="m 120.10088,107.90421 7.44899,-4.02427 0.30176,10.64005"
       id="path3992"
       sodipodi:nodetypes="ccc" />
    <path
       style="fill:none;stroke:#800080;stroke-width:1;stroke-linecap:round;stroke-linejoin:round;stroke-dasharray:none;stroke-dashoffset:0"
       id="path3996"
       sodipodi:type="arc"
       sodipodi:cx="144.70419"
       sodipodi:cy="71.419502"
       sodipodi:rx="3.9222734"
       sodipodi:ry="3.9222734"
       sodipodi:start="4.8135547"
       sodipodi:end="1.0886932"
       sodipodi:arc-type="arc"
       d="m 145.10032,67.517283 a 3.9222734,3.9222734 0 0 1 3.45521,3.159658 3.9222734,3.9222734 0 0 1 -2.0328,4.217781"
       sodipodi:open="true" />
    <path
       style="fill:none;stroke:#800080;stroke-width:1;stroke-linecap:butt;stroke-linejoin:round;stroke-dasharray:none;stroke-opacity:1"
       d="M 145.4953,67.582237 89.719356,56.671696 141.02759,78.35954 l 5.79869,-3.668775"
       id="path3998"
       sodipodi:nodetypes="cccc" />
    <ellipse
       style="fill:#800080;stroke:none;stroke-width:1;stroke-linecap:round;stroke-linejoin:round;stroke-dasharray:none;stroke-dashoffset:0"
       id="path4085"
       cx="129.40033"
       cy="38.714218"
       rx="12.826551"
       ry="1.2896191"
       transform="rotate(10.938105)" />
    <ellipse
       style="fill:#800080;stroke:none;stroke-width:1;stroke-linecap:round;stroke-linejoin:round;stroke-dasharray:none;stroke-dashoffset:0"
       id="path4085-3"
       cx="135.46107"
       cy="17.908642"
       rx="12.826551"
       ry="1.2896191"
       transform="rotate(22.67804)" />
    <ellipse
       style="fill:#800080;stroke:none;stroke-width:1;stroke-linecap:round;stroke-linejoin:round;stroke-dasharray:none;stroke-dashoffset:0"
       id="path4085-3-6"
       cx="64.433571"
       cy="149.58533"
       rx="2.555335"
       ry="1.0676796"
       transform="rotate(-26.128058)" />
    <ellipse
       style="fill:#800080;stroke:none;stroke-width:1;stroke-linecap:round;stroke-linejoin:round;stroke-dasharray:none;stroke-dashoffset:0"
       id="path4085-3-6-7"
       cx="112.40191"
       cy="-124.78462"
       rx="2.555335"
       ry="1.0676796"
       transform="rotate(88.526017)" />
    <path
       style="fill:none;stroke:#000000;stroke-width:0.264583px;stroke-linecap:butt;stroke-linejoin:miter;stroke-opacity:1"
       d="m 147.40431,128.55876 -29.65793,0.61726 29.67035,-25.31517"
       id="path7344"
       sodipodi:nodetypes="ccc" />
    <path
       style="fill:none;stroke:#000000;stroke-width:0.264583px;stroke-linecap:butt;stroke-linejoin:miter;stroke-opacity:1"
       d="M 131.70602,117.82483 109.73984,97.672317"
       id="path7362" />
    <path
       style="fill:none;stroke:#000000;stroke-width:0.264583px;stroke-linecap:butt;stroke-linejoin:miter;stroke-opacity:1"
       d="m 144.43429,71.679672 6.43543,-12.202488"
       id="path7364" />
    <g
       transform="matrix(0.705556,0,0,0.705556,144.60948,116.21577)"
       ns2:version="1.8.2"
       ns2:texconverter="pdflatex"
       ns2:pdfconverter="inkscape"
       ns2:text="$q_1$"
       ns2:preamble="/usr/share/inkscape/extensions/textext/default_packages.tex"
       ns2:scale="2.0"
       ns2:alignment="middle center"
       ns2:stroke-to-path="0"
       ns2:inkscapeversion="1.2.2"
       ns2:jacobian_sqrt="0.705556"
       id="g8760">
      <defs
         id="id-6284afcd-e0e8-4960-ab3c-344dcf4d50e9">
        <g
           id="id-a0d320b2-f7a7-44c9-a88b-a8e5b8fe55ed">
          <g
             id="id-fbe460a7-3d0d-4502-9586-c275c587f195">
            <path
               d="m 4.5,-4.296875 c 0,-0.046875 -0.03125,-0.09375 -0.09375,-0.09375 -0.109375,0 -0.515625,0.390625 -0.671875,0.6875 C 3.515625,-4.25 3.125,-4.40625 2.796875,-4.40625 c -1.171875,0 -2.390625,1.46875 -2.390625,2.921875 0,0.96875 0.578125,1.59375 1.3125,1.59375 0.421875,0 0.8125,-0.234375 1.171875,-0.59375 -0.09375,0.34375 -0.421875,1.6875 -0.453125,1.78125 -0.078125,0.28125 -0.15625,0.3125 -0.71875,0.328125 -0.125,0 -0.21875,0 -0.21875,0.203125 0,0 0,0.109375 0.125,0.109375 0.3125,0 0.671875,-0.03125 1,-0.03125 0.328125,0 0.6875,0.03125 1.03125,0.03125 0.046875,0 0.171875,0 0.171875,-0.203125 C 3.828125,1.625 3.734375,1.625 3.5625,1.625 3.09375,1.625 3.09375,1.5625 3.09375,1.46875 3.09375,1.390625 3.109375,1.328125 3.125,1.25 Z m -2.75,4.1875 c -0.609375,0 -0.640625,-0.765625 -0.640625,-0.9375 0,-0.484375 0.28125,-1.5625 0.453125,-1.984375 0.3125,-0.734375 0.828125,-1.15625 1.234375,-1.15625 0.65625,0 0.796875,0.8125 0.796875,0.875 0,0.0625 -0.546875,2.25 -0.578125,2.28125 C 2.859375,-0.75 2.296875,-0.109375 1.75,-0.109375 Z m 0,0"
               id="id-83b0044b-71a6-42f0-9320-0a8ea2fa984b" />
          </g>
          <g
             id="id-463828f8-5b41-4b6b-ad8a-aa6e17aeb6e1">
            <path
               d="m 2.328125,-4.4375 c 0,-0.1875 0,-0.1875 -0.203125,-0.1875 -0.453125,0.4375 -1.078125,0.4375 -1.359375,0.4375 v 0.25 c 0.15625,0 0.625,0 1,-0.1875 v 3.546875 c 0,0.234375 0,0.328125 -0.6875,0.328125 H 0.8125 V 0 c 0.125,0 0.984375,-0.03125 1.234375,-0.03125 0.21875,0 1.09375,0.03125 1.25,0.03125 V -0.25 H 3.03125 c -0.703125,0 -0.703125,-0.09375 -0.703125,-0.328125 z m 0,0"
               id="id-13fcd326-e25b-4008-bb13-62486f9a175f" />
          </g>
        </g>
      </defs>
      <g
         fill="#000000"
         fill-opacity="1"
         id="id-febc8b77-7832-418d-829c-7b64cc1882eb"
         transform="translate(-149.118,-130.359)">
        <g
           transform="translate(148.712,134.765)"
           id="g8753">
          <path
             d="m 4.5,-4.296875 c 0,-0.046875 -0.03125,-0.09375 -0.09375,-0.09375 -0.109375,0 -0.515625,0.390625 -0.671875,0.6875 C 3.515625,-4.25 3.125,-4.40625 2.796875,-4.40625 c -1.171875,0 -2.390625,1.46875 -2.390625,2.921875 0,0.96875 0.578125,1.59375 1.3125,1.59375 0.421875,0 0.8125,-0.234375 1.171875,-0.59375 -0.09375,0.34375 -0.421875,1.6875 -0.453125,1.78125 -0.078125,0.28125 -0.15625,0.3125 -0.71875,0.328125 -0.125,0 -0.21875,0 -0.21875,0.203125 0,0 0,0.109375 0.125,0.109375 0.3125,0 0.671875,-0.03125 1,-0.03125 0.328125,0 0.6875,0.03125 1.03125,0.03125 0.046875,0 0.171875,0 0.171875,-0.203125 C 3.828125,1.625 3.734375,1.625 3.5625,1.625 3.09375,1.625 3.09375,1.5625 3.09375,1.46875 3.09375,1.390625 3.109375,1.328125 3.125,1.25 Z m -2.75,4.1875 c -0.609375,0 -0.640625,-0.765625 -0.640625,-0.9375 0,-0.484375 0.28125,-1.5625 0.453125,-1.984375 0.3125,-0.734375 0.828125,-1.15625 1.234375,-1.15625 0.65625,0 0.796875,0.8125 0.796875,0.875 0,0.0625 -0.546875,2.25 -0.578125,2.28125 C 2.859375,-0.75 2.296875,-0.109375 1.75,-0.109375 Z m 0,0"
             id="id-1ff349c9-6616-4845-8dcf-d970a308fee9" />
        </g>
      </g>
      <g
         fill="#000000"
         fill-opacity="1"
         id="id-8dddbcf0-3de0-4f0b-ae1e-ce16052d5674"
         transform="translate(-149.118,-130.359)">
        <g
           transform="translate(153.16,136.259)"
           id="g8757">
          <path
             d="m 2.328125,-4.4375 c 0,-0.1875 0,-0.1875 -0.203125,-0.1875 -0.453125,0.4375 -1.078125,0.4375 -1.359375,0.4375 v 0.25 c 0.15625,0 0.625,0 1,-0.1875 v 3.546875 c 0,0.234375 0,0.328125 -0.6875,0.328125 H 0.8125 V 0 c 0.125,0 0.984375,-0.03125 1.234375,-0.03125 0.21875,0 1.09375,0.03125 1.25,0.03125 V -0.25 H 3.03125 c -0.703125,0 -0.703125,-0.09375 -0.703125,-0.328125 z m 0,0"
             id="id-25ba4a5b-0b96-4698-b001-b639645259dc" />
        </g>
      </g>
    </g>
    <g
       transform="matrix(0.705556,0,0,0.705556,112.42102,90.586902)"
       ns2:version="1.8.2"
       ns2:texconverter="pdflatex"
       ns2:pdfconverter="inkscape"
       ns2:text="$-q_3$"
       ns2:preamble="/usr/share/inkscape/extensions/textext/default_packages.tex"
       ns2:scale="2.0"
       ns2:alignment="middle center"
       ns2:stroke-to-path="0"
       ns2:inkscapeversion="1.2.2"
       ns2:jacobian_sqrt="0.705556"
       id="g9037">
      <defs
         id="id-8d8f9981-f433-44ad-a98a-6485867ef83a">
        <g
           id="id-c963afc6-e81d-4ea1-8d29-9b71b65f4ee1">
          <g
             id="id-e8f31a0e-a868-4e30-b3d9-0a30449b24ae">
            <path
               d="m 6.5625,-2.296875 c 0.171875,0 0.359375,0 0.359375,-0.203125 0,-0.1875 -0.1875,-0.1875 -0.359375,-0.1875 H 1.171875 c -0.171875,0 -0.34375,0 -0.34375,0.1875 0,0.203125 0.171875,0.203125 0.34375,0.203125 z m 0,0"
               id="id-e673d3ba-3541-412a-b152-674a0df64fed" />
          </g>
          <g
             id="id-cf0f330d-bf90-48e6-a78c-29fa3815a72a">
            <path
               d="m 4.5,-4.296875 c 0,-0.046875 -0.03125,-0.09375 -0.09375,-0.09375 -0.109375,0 -0.515625,0.390625 -0.671875,0.6875 C 3.515625,-4.25 3.125,-4.40625 2.796875,-4.40625 c -1.171875,0 -2.390625,1.46875 -2.390625,2.921875 0,0.96875 0.578125,1.59375 1.3125,1.59375 0.421875,0 0.8125,-0.234375 1.171875,-0.59375 -0.09375,0.34375 -0.421875,1.6875 -0.453125,1.78125 -0.078125,0.28125 -0.15625,0.3125 -0.71875,0.328125 -0.125,0 -0.21875,0 -0.21875,0.203125 0,0 0,0.109375 0.125,0.109375 0.3125,0 0.671875,-0.03125 1,-0.03125 0.328125,0 0.6875,0.03125 1.03125,0.03125 0.046875,0 0.171875,0 0.171875,-0.203125 C 3.828125,1.625 3.734375,1.625 3.5625,1.625 3.09375,1.625 3.09375,1.5625 3.09375,1.46875 3.09375,1.390625 3.109375,1.328125 3.125,1.25 Z m -2.75,4.1875 c -0.609375,0 -0.640625,-0.765625 -0.640625,-0.9375 0,-0.484375 0.28125,-1.5625 0.453125,-1.984375 0.3125,-0.734375 0.828125,-1.15625 1.234375,-1.15625 0.65625,0 0.796875,0.8125 0.796875,0.875 0,0.0625 -0.546875,2.25 -0.578125,2.28125 C 2.859375,-0.75 2.296875,-0.109375 1.75,-0.109375 Z m 0,0"
               id="id-fba252f3-afe5-422a-af46-4d1757547a7c" />
          </g>
          <g
             id="id-a26a87e4-ee04-4acc-b16f-287b73cac8e4">
            <path
               d="m 1.90625,-2.328125 c 0.546875,0 0.9375,0.375 0.9375,1.125 0,0.859375 -0.515625,1.125 -0.90625,1.125 -0.28125,0 -0.90625,-0.078125 -1.1875,-0.5 0.328125,0 0.40625,-0.234375 0.40625,-0.390625 0,-0.21875 -0.171875,-0.375 -0.390625,-0.375 -0.1875,0 -0.390625,0.125 -0.390625,0.40625 0,0.65625 0.71875,1.078125 1.5625,1.078125 0.96875,0 1.640625,-0.65625 1.640625,-1.34375 0,-0.546875 -0.4375,-1.09375 -1.203125,-1.25 0.71875,-0.265625 0.984375,-0.78125 0.984375,-1.21875 0,-0.546875 -0.625,-0.953125 -1.40625,-0.953125 -0.765625,0 -1.359375,0.375 -1.359375,0.9375 0,0.234375 0.15625,0.359375 0.359375,0.359375 0.21875,0 0.359375,-0.15625 0.359375,-0.34375 0,-0.203125 -0.140625,-0.359375 -0.359375,-0.375 0.25,-0.296875 0.71875,-0.375 0.984375,-0.375 0.3125,0 0.75,0.15625 0.75,0.75 0,0.296875 -0.09375,0.625 -0.28125,0.828125 -0.21875,0.265625 -0.421875,0.28125 -0.765625,0.3125 -0.171875,0.015625 -0.1875,0.015625 -0.21875,0.015625 -0.015625,0 -0.078125,0.015625 -0.078125,0.09375 0,0.09375 0.0625,0.09375 0.1875,0.09375 z m 0,0"
               id="id-8e2e0223-2250-4815-9640-5d8d312188bd" />
          </g>
        </g>
      </defs>
      <g
         fill="#000000"
         fill-opacity="1"
         id="id-80c2a1fe-5d2e-434b-b7ce-f040e1f45cab"
         transform="translate(-149.54,-130.359)">
        <g
           transform="translate(148.712,134.765)"
           id="g10234">
          <path
             d="m 6.5625,-2.296875 c 0.171875,0 0.359375,0 0.359375,-0.203125 0,-0.1875 -0.1875,-0.1875 -0.359375,-0.1875 H 1.171875 c -0.171875,0 -0.34375,0 -0.34375,0.1875 0,0.203125 0.171875,0.203125 0.34375,0.203125 z m 0,0"
             id="id-db0b3c98-5fe5-49b5-833a-6df8307b6444" />
        </g>
      </g>
      <g
         fill="#000000"
         fill-opacity="1"
         id="id-71ddbcaa-7c43-41ed-808d-8f57e0108ba1"
         transform="translate(-149.54,-130.359)">
        <g
           transform="translate(156.461,134.765)"
           id="g10238">
          <path
             d="m 4.5,-4.296875 c 0,-0.046875 -0.03125,-0.09375 -0.09375,-0.09375 -0.109375,0 -0.515625,0.390625 -0.671875,0.6875 C 3.515625,-4.25 3.125,-4.40625 2.796875,-4.40625 c -1.171875,0 -2.390625,1.46875 -2.390625,2.921875 0,0.96875 0.578125,1.59375 1.3125,1.59375 0.421875,0 0.8125,-0.234375 1.171875,-0.59375 -0.09375,0.34375 -0.421875,1.6875 -0.453125,1.78125 -0.078125,0.28125 -0.15625,0.3125 -0.71875,0.328125 -0.125,0 -0.21875,0 -0.21875,0.203125 0,0 0,0.109375 0.125,0.109375 0.3125,0 0.671875,-0.03125 1,-0.03125 0.328125,0 0.6875,0.03125 1.03125,0.03125 0.046875,0 0.171875,0 0.171875,-0.203125 C 3.828125,1.625 3.734375,1.625 3.5625,1.625 3.09375,1.625 3.09375,1.5625 3.09375,1.46875 3.09375,1.390625 3.109375,1.328125 3.125,1.25 Z m -2.75,4.1875 c -0.609375,0 -0.640625,-0.765625 -0.640625,-0.9375 0,-0.484375 0.28125,-1.5625 0.453125,-1.984375 0.3125,-0.734375 0.828125,-1.15625 1.234375,-1.15625 0.65625,0 0.796875,0.8125 0.796875,0.875 0,0.0625 -0.546875,2.25 -0.578125,2.28125 C 2.859375,-0.75 2.296875,-0.109375 1.75,-0.109375 Z m 0,0"
             id="id-039e0ee0-0932-41e5-abc3-5706efd7806c" />
        </g>
      </g>
      <g
         fill="#000000"
         fill-opacity="1"
         id="id-35701869-e248-47a6-a29c-adb71e695ee9"
         transform="translate(-149.54,-130.359)">
        <g
           transform="translate(160.908,136.259)"
           id="g10242">
          <path
             d="m 1.90625,-2.328125 c 0.546875,0 0.9375,0.375 0.9375,1.125 0,0.859375 -0.515625,1.125 -0.90625,1.125 -0.28125,0 -0.90625,-0.078125 -1.1875,-0.5 0.328125,0 0.40625,-0.234375 0.40625,-0.390625 0,-0.21875 -0.171875,-0.375 -0.390625,-0.375 -0.1875,0 -0.390625,0.125 -0.390625,0.40625 0,0.65625 0.71875,1.078125 1.5625,1.078125 0.96875,0 1.640625,-0.65625 1.640625,-1.34375 0,-0.546875 -0.4375,-1.09375 -1.203125,-1.25 0.71875,-0.265625 0.984375,-0.78125 0.984375,-1.21875 0,-0.546875 -0.625,-0.953125 -1.40625,-0.953125 -0.765625,0 -1.359375,0.375 -1.359375,0.9375 0,0.234375 0.15625,0.359375 0.359375,0.359375 0.21875,0 0.359375,-0.15625 0.359375,-0.34375 0,-0.203125 -0.140625,-0.359375 -0.359375,-0.375 0.25,-0.296875 0.71875,-0.375 0.984375,-0.375 0.3125,0 0.75,0.15625 0.75,0.75 0,0.296875 -0.09375,0.625 -0.28125,0.828125 -0.21875,0.265625 -0.421875,0.28125 -0.765625,0.3125 -0.171875,0.015625 -0.1875,0.015625 -0.21875,0.015625 -0.015625,0 -0.078125,0.015625 -0.078125,0.09375 0,0.09375 0.0625,0.09375 0.1875,0.09375 z m 0,0"
             id="id-b8d801cd-ca90-4c10-93ad-133855b6c669" />
        </g>
      </g>
    </g>
    <g
       transform="matrix(0.705556,0,0,0.705556,136.86762,55.435566)"
       ns2:version="1.8.2"
       ns2:texconverter="pdflatex"
       ns2:pdfconverter="inkscape"
       ns2:text="$q_4$"
       ns2:preamble="/usr/share/inkscape/extensions/textext/default_packages.tex"
       ns2:scale="2.0"
       ns2:alignment="middle center"
       ns2:stroke-to-path="0"
       ns2:inkscapeversion="1.2.2"
       ns2:jacobian_sqrt="0.705556"
       id="g10452">
      <defs
         id="id-e2133fad-78a1-48b5-bfd6-8643dbbde554">
        <g
           id="id-fbde74e1-84d9-4d19-ab52-d0763b8690a2">
          <g
             id="id-97c0803a-99ce-436e-be5b-cf0570cde394">
            <path
               d="m 4.5,-4.296875 c 0,-0.046875 -0.03125,-0.09375 -0.09375,-0.09375 -0.109375,0 -0.515625,0.390625 -0.671875,0.6875 C 3.515625,-4.25 3.125,-4.40625 2.796875,-4.40625 c -1.171875,0 -2.390625,1.46875 -2.390625,2.921875 0,0.96875 0.578125,1.59375 1.3125,1.59375 0.421875,0 0.8125,-0.234375 1.171875,-0.59375 -0.09375,0.34375 -0.421875,1.6875 -0.453125,1.78125 -0.078125,0.28125 -0.15625,0.3125 -0.71875,0.328125 -0.125,0 -0.21875,0 -0.21875,0.203125 0,0 0,0.109375 0.125,0.109375 0.3125,0 0.671875,-0.03125 1,-0.03125 0.328125,0 0.6875,0.03125 1.03125,0.03125 0.046875,0 0.171875,0 0.171875,-0.203125 C 3.828125,1.625 3.734375,1.625 3.5625,1.625 3.09375,1.625 3.09375,1.5625 3.09375,1.46875 3.09375,1.390625 3.109375,1.328125 3.125,1.25 Z m -2.75,4.1875 c -0.609375,0 -0.640625,-0.765625 -0.640625,-0.9375 0,-0.484375 0.28125,-1.5625 0.453125,-1.984375 0.3125,-0.734375 0.828125,-1.15625 1.234375,-1.15625 0.65625,0 0.796875,0.8125 0.796875,0.875 0,0.0625 -0.546875,2.25 -0.578125,2.28125 C 2.859375,-0.75 2.296875,-0.109375 1.75,-0.109375 Z m 0,0"
               id="id-061f854e-2028-42e8-9bd1-62e13615cbd1" />
          </g>
          <g
             id="id-1b06d577-1d31-4b9c-8b3d-36df585edf0f">
            <path
               d="m 3.6875,-1.140625 v -0.25 H 2.90625 V -4.5 c 0,-0.140625 0,-0.203125 -0.140625,-0.203125 -0.09375,0 -0.125,0 -0.1875,0.109375 l -2.3125,3.203125 v 0.25 h 2.0625 v 0.5625 c 0,0.25 0,0.328125 -0.578125,0.328125 H 1.5625 V 0 C 1.921875,-0.015625 2.359375,-0.03125 2.609375,-0.03125 2.875,-0.03125 3.3125,-0.015625 3.671875,0 v -0.25 h -0.1875 C 2.90625,-0.25 2.90625,-0.328125 2.90625,-0.578125 v -0.5625 z M 2.375,-3.9375 v 2.546875 H 0.53125 Z m 0,0"
               id="id-d6774703-746a-4478-a493-489a0282d14f" />
          </g>
        </g>
      </defs>
      <g
         fill="#000000"
         fill-opacity="1"
         id="id-b6cd3d2a-95c6-4bb0-be72-91b809d22340"
         transform="translate(-149.118,-130.359)">
        <g
           transform="translate(148.712,134.765)"
           id="g10445">
          <path
             d="m 4.5,-4.296875 c 0,-0.046875 -0.03125,-0.09375 -0.09375,-0.09375 -0.109375,0 -0.515625,0.390625 -0.671875,0.6875 C 3.515625,-4.25 3.125,-4.40625 2.796875,-4.40625 c -1.171875,0 -2.390625,1.46875 -2.390625,2.921875 0,0.96875 0.578125,1.59375 1.3125,1.59375 0.421875,0 0.8125,-0.234375 1.171875,-0.59375 -0.09375,0.34375 -0.421875,1.6875 -0.453125,1.78125 -0.078125,0.28125 -0.15625,0.3125 -0.71875,0.328125 -0.125,0 -0.21875,0 -0.21875,0.203125 0,0 0,0.109375 0.125,0.109375 0.3125,0 0.671875,-0.03125 1,-0.03125 0.328125,0 0.6875,0.03125 1.03125,0.03125 0.046875,0 0.171875,0 0.171875,-0.203125 C 3.828125,1.625 3.734375,1.625 3.5625,1.625 3.09375,1.625 3.09375,1.5625 3.09375,1.46875 3.09375,1.390625 3.109375,1.328125 3.125,1.25 Z m -2.75,4.1875 c -0.609375,0 -0.640625,-0.765625 -0.640625,-0.9375 0,-0.484375 0.28125,-1.5625 0.453125,-1.984375 0.3125,-0.734375 0.828125,-1.15625 1.234375,-1.15625 0.65625,0 0.796875,0.8125 0.796875,0.875 0,0.0625 -0.546875,2.25 -0.578125,2.28125 C 2.859375,-0.75 2.296875,-0.109375 1.75,-0.109375 Z m 0,0"
             id="id-80302d22-c709-4bc9-be5a-b18978159eae" />
        </g>
      </g>
      <g
         fill="#000000"
         fill-opacity="1"
         id="id-1fcf26ec-90d8-4a5b-881f-566940c948f5"
         transform="translate(-149.118,-130.359)">
        <g
           transform="translate(153.16,136.259)"
           id="g10449">
          <path
             d="m 3.6875,-1.140625 v -0.25 H 2.90625 V -4.5 c 0,-0.140625 0,-0.203125 -0.140625,-0.203125 -0.09375,0 -0.125,0 -0.1875,0.109375 l -2.3125,3.203125 v 0.25 h 2.0625 v 0.5625 c 0,0.25 0,0.328125 -0.578125,0.328125 H 1.5625 V 0 C 1.921875,-0.015625 2.359375,-0.03125 2.609375,-0.03125 2.875,-0.03125 3.3125,-0.015625 3.671875,0 v -0.25 h -0.1875 C 2.90625,-0.25 2.90625,-0.328125 2.90625,-0.578125 v -0.5625 z M 2.375,-3.9375 v 2.546875 H 0.53125 Z m 0,0"
             id="id-c68b39b3-f737-4cd5-9675-16b2e272b04b" />
        </g>
      </g>
    </g>
    <path
       style="fill:none;stroke:#000000;stroke-width:0.5;stroke-linejoin:round;stroke-dasharray:none;stroke-dashoffset:0;marker-start:url(#Arrow5)"
       id="path294-9"
       sodipodi:type="arc"
       sodipodi:cx="142.24313"
       sodipodi:cy="72.44104"
       sodipodi:rx="10.42194"
       sodipodi:ry="10.42194"
       sodipodi:start="3.9318103"
       sodipodi:end="5.3412396"
       sodipodi:open="true"
       sodipodi:arc-type="arc"
       d="m 134.90931,65.036185 a 10.42194,10.42194 0 0 1 13.46417,-1.023411" />
    <g
       transform="matrix(0.705556,0,0,0.705556,136.93107,95.113055)"
       ns2:version="1.8.2"
       ns2:texconverter="pdflatex"
       ns2:pdfconverter="inkscape"
       ns2:text="$q_2$"
       ns2:preamble="/usr/share/inkscape/extensions/textext/default_packages.tex"
       ns2:scale="2.0"
       ns2:alignment="middle center"
       ns2:stroke-to-path="0"
       ns2:inkscapeversion="1.2.2"
       ns2:jacobian_sqrt="0.705556"
       id="g14487">
      <defs
         id="id-da046f8d-5071-4256-a6a5-0ac7c2cfe42f">
        <g
           id="id-bc4e31fc-2ca1-4bda-bb8c-f43b5c7cd949">
          <g
             id="id-c2af1893-7686-47c4-80fc-7874fc3902d1">
            <path
               d="m 4.5,-4.296875 c 0,-0.046875 -0.03125,-0.09375 -0.09375,-0.09375 -0.109375,0 -0.515625,0.390625 -0.671875,0.6875 C 3.515625,-4.25 3.125,-4.40625 2.796875,-4.40625 c -1.171875,0 -2.390625,1.46875 -2.390625,2.921875 0,0.96875 0.578125,1.59375 1.3125,1.59375 0.421875,0 0.8125,-0.234375 1.171875,-0.59375 -0.09375,0.34375 -0.421875,1.6875 -0.453125,1.78125 -0.078125,0.28125 -0.15625,0.3125 -0.71875,0.328125 -0.125,0 -0.21875,0 -0.21875,0.203125 0,0 0,0.109375 0.125,0.109375 0.3125,0 0.671875,-0.03125 1,-0.03125 0.328125,0 0.6875,0.03125 1.03125,0.03125 0.046875,0 0.171875,0 0.171875,-0.203125 C 3.828125,1.625 3.734375,1.625 3.5625,1.625 3.09375,1.625 3.09375,1.5625 3.09375,1.46875 3.09375,1.390625 3.109375,1.328125 3.125,1.25 Z m -2.75,4.1875 c -0.609375,0 -0.640625,-0.765625 -0.640625,-0.9375 0,-0.484375 0.28125,-1.5625 0.453125,-1.984375 0.3125,-0.734375 0.828125,-1.15625 1.234375,-1.15625 0.65625,0 0.796875,0.8125 0.796875,0.875 0,0.0625 -0.546875,2.25 -0.578125,2.28125 C 2.859375,-0.75 2.296875,-0.109375 1.75,-0.109375 Z m 0,0"
               id="id-09231c3c-a91b-4e77-b2b5-dc4299578501" />
          </g>
          <g
             id="id-46df3d1b-0ab4-4bc1-994a-eca4d314a2d4">
            <path
               d="M 3.515625,-1.265625 H 3.28125 c -0.015625,0.15625 -0.09375,0.5625 -0.1875,0.625 C 3.046875,-0.59375 2.515625,-0.59375 2.40625,-0.59375 H 1.125 c 0.734375,-0.640625 0.984375,-0.84375 1.390625,-1.171875 0.515625,-0.40625 1,-0.84375 1,-1.5 0,-0.84375 -0.734375,-1.359375 -1.625,-1.359375 -0.859375,0 -1.453125,0.609375 -1.453125,1.25 0,0.34375 0.296875,0.390625 0.375,0.390625 0.15625,0 0.359375,-0.125 0.359375,-0.375 0,-0.125 -0.046875,-0.375 -0.40625,-0.375 C 0.984375,-4.21875 1.453125,-4.375 1.78125,-4.375 c 0.703125,0 1.0625,0.546875 1.0625,1.109375 0,0.609375 -0.4375,1.078125 -0.65625,1.328125 L 0.515625,-0.265625 C 0.4375,-0.203125 0.4375,-0.1875 0.4375,0 h 2.875 z m 0,0"
               id="id-b24fc2c3-10b0-470c-a695-c74ab7e42393" />
          </g>
        </g>
      </defs>
      <g
         fill="#000000"
         fill-opacity="1"
         id="id-e259b112-b2bb-43a7-a6a9-ddc5a3914303"
         transform="translate(-149.118,-130.359)">
        <g
           transform="translate(148.712,134.765)"
           id="g14480">
          <path
             d="m 4.5,-4.296875 c 0,-0.046875 -0.03125,-0.09375 -0.09375,-0.09375 -0.109375,0 -0.515625,0.390625 -0.671875,0.6875 C 3.515625,-4.25 3.125,-4.40625 2.796875,-4.40625 c -1.171875,0 -2.390625,1.46875 -2.390625,2.921875 0,0.96875 0.578125,1.59375 1.3125,1.59375 0.421875,0 0.8125,-0.234375 1.171875,-0.59375 -0.09375,0.34375 -0.421875,1.6875 -0.453125,1.78125 -0.078125,0.28125 -0.15625,0.3125 -0.71875,0.328125 -0.125,0 -0.21875,0 -0.21875,0.203125 0,0 0,0.109375 0.125,0.109375 0.3125,0 0.671875,-0.03125 1,-0.03125 0.328125,0 0.6875,0.03125 1.03125,0.03125 0.046875,0 0.171875,0 0.171875,-0.203125 C 3.828125,1.625 3.734375,1.625 3.5625,1.625 3.09375,1.625 3.09375,1.5625 3.09375,1.46875 3.09375,1.390625 3.109375,1.328125 3.125,1.25 Z m -2.75,4.1875 c -0.609375,0 -0.640625,-0.765625 -0.640625,-0.9375 0,-0.484375 0.28125,-1.5625 0.453125,-1.984375 0.3125,-0.734375 0.828125,-1.15625 1.234375,-1.15625 0.65625,0 0.796875,0.8125 0.796875,0.875 0,0.0625 -0.546875,2.25 -0.578125,2.28125 C 2.859375,-0.75 2.296875,-0.109375 1.75,-0.109375 Z m 0,0"
             id="id-9fee9ce4-76ec-4051-a349-4598d3270810" />
        </g>
      </g>
      <g
         fill="#000000"
         fill-opacity="1"
         id="id-4c49969c-053a-47b5-a3fc-c34e1a308a9b"
         transform="translate(-149.118,-130.359)">
        <g
           transform="translate(153.16,136.259)"
           id="g14484">
          <path
             d="M 3.515625,-1.265625 H 3.28125 c -0.015625,0.15625 -0.09375,0.5625 -0.1875,0.625 C 3.046875,-0.59375 2.515625,-0.59375 2.40625,-0.59375 H 1.125 c 0.734375,-0.640625 0.984375,-0.84375 1.390625,-1.171875 0.515625,-0.40625 1,-0.84375 1,-1.5 0,-0.84375 -0.734375,-1.359375 -1.625,-1.359375 -0.859375,0 -1.453125,0.609375 -1.453125,1.25 0,0.34375 0.296875,0.390625 0.375,0.390625 0.15625,0 0.359375,-0.125 0.359375,-0.375 0,-0.125 -0.046875,-0.375 -0.40625,-0.375 C 0.984375,-4.21875 1.453125,-4.375 1.78125,-4.375 c 0.703125,0 1.0625,0.546875 1.0625,1.109375 0,0.609375 -0.4375,1.078125 -0.65625,1.328125 L 0.515625,-0.265625 C 0.4375,-0.203125 0.4375,-0.1875 0.4375,0 h 2.875 z m 0,0"
             id="id-be489681-0749-4feb-bcf6-8063ef39a056" />
        </g>
      </g>
    </g>
    <path
       style="fill:none;stroke:#666666;stroke-width:0.5;stroke-linecap:butt;stroke-linejoin:miter;stroke-dasharray:none;stroke-opacity:1"
       d="m 117.415,117.83636 -51.37143,5.32806"
       id="path16385"
       sodipodi:nodetypes="cc" />
    <path
       style="fill:none;stroke:#666666;stroke-width:0.5;stroke-linecap:butt;stroke-linejoin:miter;stroke-dasharray:none;stroke-opacity:1"
       d="M 117.76474,139.9279 65.826126,135.21605"
       id="path16387"
       sodipodi:nodetypes="cc" />
    <g
       transform="matrix(0.705556,0,0,0.705556,75.904359,80.854064)"
       ns2:version="1.8.2"
       ns2:texconverter="pdflatex"
       ns2:pdfconverter="inkscape"
       ns2:text="$\\omega$"
       ns2:preamble="/usr/share/inkscape/extensions/textext/default_packages.tex"
       ns2:scale="2.0"
       ns2:alignment="middle center"
       ns2:stroke-to-path="0"
       ns2:inkscapeversion="1.2.2"
       ns2:jacobian_sqrt="0.705556"
       id="g16718">
      <defs
         id="id-18e54d0f-f6b9-4c73-9924-cdea184c9708">
        <g
           id="id-f60120b7-8f14-4bc0-8b3a-061dd792a130">
          <g
             id="id-5c7ebd94-a4cd-4ea5-ad4d-48b1c9690608">
            <path
               d="m 6.03125,-3.703125 c 0,-0.453125 -0.171875,-0.703125 -0.40625,-0.703125 -0.25,0 -0.515625,0.234375 -0.515625,0.46875 0,0.09375 0.046875,0.203125 0.140625,0.296875 0.171875,0.15625 0.359375,0.421875 0.359375,0.84375 0,0.390625 -0.203125,0.96875 -0.5,1.421875 C 4.8125,-0.953125 4.4375,-0.609375 3.96875,-0.609375 3.40625,-0.609375 3.09375,-0.96875 3,-1.5 c 0.109375,-0.265625 0.34375,-0.90625 0.34375,-1.1875 0,-0.109375 -0.046875,-0.21875 -0.1875,-0.21875 -0.078125,0 -0.1875,0.03125 -0.265625,0.171875 C 2.78125,-2.53125 2.65625,-1.890625 2.65625,-1.53125 2.328125,-1.0625 1.9375,-0.609375 1.3125,-0.609375 c -0.671875,0 -0.875,-0.59375 -0.875,-1.140625 0,-1.25 1.015625,-2.296875 1.015625,-2.421875 0,-0.109375 -0.078125,-0.1875 -0.1875,-0.1875 -0.125,0 -0.203125,0.125 -0.265625,0.21875 -0.5,0.734375 -0.875,1.921875 -0.875,2.828125 0,0.6875 0.21875,1.421875 1.046875,1.421875 0.703125,0 1.171875,-0.5 1.53125,-1.046875 0.09375,0.578125 0.484375,1.046875 1.09375,1.046875 0.78125,0 1.25,-0.609375 1.609375,-1.359375 0.25,-0.484375 0.625,-1.84375 0.625,-2.453125 z m 0,0"
               id="id-d0e10a8e-3807-40f7-976a-1d14a510fbec" />
          </g>
        </g>
      </defs>
      <g
         fill="#000000"
         fill-opacity="1"
         id="id-86308d78-c398-4db6-be6f-412a11f3f4aa"
         transform="translate(-148.837,-130.359)">
        <g
           transform="translate(148.712,134.765)"
           id="g16715">
          <path
             d="m 6.03125,-3.703125 c 0,-0.453125 -0.171875,-0.703125 -0.40625,-0.703125 -0.25,0 -0.515625,0.234375 -0.515625,0.46875 0,0.09375 0.046875,0.203125 0.140625,0.296875 0.171875,0.15625 0.359375,0.421875 0.359375,0.84375 0,0.390625 -0.203125,0.96875 -0.5,1.421875 C 4.8125,-0.953125 4.4375,-0.609375 3.96875,-0.609375 3.40625,-0.609375 3.09375,-0.96875 3,-1.5 c 0.109375,-0.265625 0.34375,-0.90625 0.34375,-1.1875 0,-0.109375 -0.046875,-0.21875 -0.1875,-0.21875 -0.078125,0 -0.1875,0.03125 -0.265625,0.171875 C 2.78125,-2.53125 2.65625,-1.890625 2.65625,-1.53125 2.328125,-1.0625 1.9375,-0.609375 1.3125,-0.609375 c -0.671875,0 -0.875,-0.59375 -0.875,-1.140625 0,-1.25 1.015625,-2.296875 1.015625,-2.421875 0,-0.109375 -0.078125,-0.1875 -0.1875,-0.1875 -0.125,0 -0.203125,0.125 -0.265625,0.21875 -0.5,0.734375 -0.875,1.921875 -0.875,2.828125 0,0.6875 0.21875,1.421875 1.046875,1.421875 0.703125,0 1.171875,-0.5 1.53125,-1.046875 0.09375,0.578125 0.484375,1.046875 1.09375,1.046875 0.78125,0 1.25,-0.609375 1.609375,-1.359375 0.25,-0.484375 0.625,-1.84375 0.625,-2.453125 z m 0,0"
             id="id-d6348e6e-fc1e-4aa7-862e-3f391d81afb5" />
        </g>
      </g>
    </g>
    <g
       transform="matrix(0.705556,0,0,0.705556,112.0864,131.06755)"
       ns2:version="1.8.2"
       ns2:texconverter="pdflatex"
       ns2:pdfconverter="inkscape"
       ns2:text="$P_1$"
       ns2:preamble="/usr/share/inkscape/extensions/textext/default_packages.tex"
       ns2:scale="2.0"
       ns2:alignment="middle center"
       ns2:stroke-to-path="0"
       ns2:inkscapeversion="1.2.2"
       ns2:jacobian_sqrt="0.705556"
       id="g17894">
      <defs
         id="id-fd00c2a1-82c7-48b7-bf7e-ec1dc4a0d764">
        <g
           id="id-9195f7d0-d04a-4e47-bd42-bd9f2884ed0b">
          <g
             id="id-8a7f0fa0-f03b-40f2-ae2f-ac9839263963">
            <path
               d="M 3.015625,-3.15625 H 4.71875 c 1.40625,0 2.796875,-1.03125 2.796875,-2.140625 0,-0.78125 -0.65625,-1.515625 -1.96875,-1.515625 h -3.21875 c -0.1875,0 -0.296875,0 -0.296875,0.1875 0,0.125 0.078125,0.125 0.28125,0.125 0.125,0 0.3125,0.015625 0.421875,0.015625 0.171875,0.03125 0.21875,0.046875 0.21875,0.171875 0,0.03125 0,0.0625 -0.03125,0.1875 l -1.34375,5.34375 c -0.09375,0.390625 -0.109375,0.46875 -0.90625,0.46875 -0.15625,0 -0.265625,0 -0.265625,0.1875 C 0.40625,0 0.515625,0 0.546875,0 0.828125,0 1.53125,-0.03125 1.8125,-0.03125 c 0.21875,0 0.4375,0.015625 0.640625,0.015625 0.21875,0 0.4375,0.015625 0.640625,0.015625 0.078125,0 0.203125,0 0.203125,-0.203125 0,-0.109375 -0.09375,-0.109375 -0.28125,-0.109375 -0.359375,0 -0.640625,0 -0.640625,-0.171875 0,-0.0625 0.015625,-0.109375 0.03125,-0.171875 z M 3.734375,-6.125 C 3.828125,-6.46875 3.84375,-6.5 4.28125,-6.5 h 0.953125 c 0.828125,0 1.359375,0.265625 1.359375,0.953125 0,0.390625 -0.203125,1.25 -0.59375,1.609375 -0.5,0.453125 -1.09375,0.53125 -1.53125,0.53125 H 3.0625 Z m 0,0"
               id="id-72ea7660-e865-4f95-ba2c-9fd6dca473ae" />
          </g>
          <g
             id="id-2a8c15ae-80d2-4e0f-8549-1a2050fdc44a">
            <path
               d="m 2.328125,-4.4375 c 0,-0.1875 0,-0.1875 -0.203125,-0.1875 -0.453125,0.4375 -1.078125,0.4375 -1.359375,0.4375 v 0.25 c 0.15625,0 0.625,0 1,-0.1875 v 3.546875 c 0,0.234375 0,0.328125 -0.6875,0.328125 H 0.8125 V 0 c 0.125,0 0.984375,-0.03125 1.234375,-0.03125 0.21875,0 1.09375,0.03125 1.25,0.03125 V -0.25 H 3.03125 c -0.703125,0 -0.703125,-0.09375 -0.703125,-0.328125 z m 0,0"
               id="id-5b37513c-dc33-465e-a955-634be5c2b4c7" />
          </g>
        </g>
      </defs>
      <g
         fill="#000000"
         fill-opacity="1"
         id="id-20657c9b-0099-4e53-a96a-82a105037242"
         transform="translate(-149.118,-127.953)">
        <g
           transform="translate(148.712,134.765)"
           id="g17887">
          <path
             d="M 3.015625,-3.15625 H 4.71875 c 1.40625,0 2.796875,-1.03125 2.796875,-2.140625 0,-0.78125 -0.65625,-1.515625 -1.96875,-1.515625 h -3.21875 c -0.1875,0 -0.296875,0 -0.296875,0.1875 0,0.125 0.078125,0.125 0.28125,0.125 0.125,0 0.3125,0.015625 0.421875,0.015625 0.171875,0.03125 0.21875,0.046875 0.21875,0.171875 0,0.03125 0,0.0625 -0.03125,0.1875 l -1.34375,5.34375 c -0.09375,0.390625 -0.109375,0.46875 -0.90625,0.46875 -0.15625,0 -0.265625,0 -0.265625,0.1875 C 0.40625,0 0.515625,0 0.546875,0 0.828125,0 1.53125,-0.03125 1.8125,-0.03125 c 0.21875,0 0.4375,0.015625 0.640625,0.015625 0.21875,0 0.4375,0.015625 0.640625,0.015625 0.078125,0 0.203125,0 0.203125,-0.203125 0,-0.109375 -0.09375,-0.109375 -0.28125,-0.109375 -0.359375,0 -0.640625,0 -0.640625,-0.171875 0,-0.0625 0.015625,-0.109375 0.03125,-0.171875 z M 3.734375,-6.125 C 3.828125,-6.46875 3.84375,-6.5 4.28125,-6.5 h 0.953125 c 0.828125,0 1.359375,0.265625 1.359375,0.953125 0,0.390625 -0.203125,1.25 -0.59375,1.609375 -0.5,0.453125 -1.09375,0.53125 -1.53125,0.53125 H 3.0625 Z m 0,0"
             id="id-adc5e79b-e721-4872-9bfa-9915d6ea1615" />
        </g>
      </g>
      <g
         fill="#000000"
         fill-opacity="1"
         id="id-ac643dbe-878c-4895-b013-4b32500f0332"
         transform="translate(-149.118,-127.953)">
        <g
           transform="translate(155.108,136.259)"
           id="g17891">
          <path
             d="m 2.328125,-4.4375 c 0,-0.1875 0,-0.1875 -0.203125,-0.1875 -0.453125,0.4375 -1.078125,0.4375 -1.359375,0.4375 v 0.25 c 0.15625,0 0.625,0 1,-0.1875 v 3.546875 c 0,0.234375 0,0.328125 -0.6875,0.328125 H 0.8125 V 0 c 0.125,0 0.984375,-0.03125 1.234375,-0.03125 0.21875,0 1.09375,0.03125 1.25,0.03125 V -0.25 H 3.03125 c -0.703125,0 -0.703125,-0.09375 -0.703125,-0.328125 z m 0,0"
             id="id-f772b585-3401-4829-9114-ce18ee0e8ae7" />
        </g>
      </g>
    </g>
    <g
       transform="matrix(0.705556,0,0,0.705556,134.59004,120.64508)"
       ns2:version="1.8.2"
       ns2:texconverter="pdflatex"
       ns2:pdfconverter="inkscape"
       ns2:text="$P_2$"
       ns2:preamble="/usr/share/inkscape/extensions/textext/default_packages.tex"
       ns2:scale="2.0"
       ns2:alignment="middle center"
       ns2:stroke-to-path="0"
       ns2:inkscapeversion="1.2.2"
       ns2:jacobian_sqrt="0.705556"
       id="g18155">
      <defs
         id="id-e02f5360-d5a2-4eb0-8e8d-6fd1556773a9">
        <g
           id="id-8bf0c2fa-fa25-4fbc-ac3b-e3bdf31cba55">
          <g
             id="id-6fa01e7b-648e-4fd0-ab49-bdf85b904933">
            <path
               d="M 3.015625,-3.15625 H 4.71875 c 1.40625,0 2.796875,-1.03125 2.796875,-2.140625 0,-0.78125 -0.65625,-1.515625 -1.96875,-1.515625 h -3.21875 c -0.1875,0 -0.296875,0 -0.296875,0.1875 0,0.125 0.078125,0.125 0.28125,0.125 0.125,0 0.3125,0.015625 0.421875,0.015625 0.171875,0.03125 0.21875,0.046875 0.21875,0.171875 0,0.03125 0,0.0625 -0.03125,0.1875 l -1.34375,5.34375 c -0.09375,0.390625 -0.109375,0.46875 -0.90625,0.46875 -0.15625,0 -0.265625,0 -0.265625,0.1875 C 0.40625,0 0.515625,0 0.546875,0 0.828125,0 1.53125,-0.03125 1.8125,-0.03125 c 0.21875,0 0.4375,0.015625 0.640625,0.015625 0.21875,0 0.4375,0.015625 0.640625,0.015625 0.078125,0 0.203125,0 0.203125,-0.203125 0,-0.109375 -0.09375,-0.109375 -0.28125,-0.109375 -0.359375,0 -0.640625,0 -0.640625,-0.171875 0,-0.0625 0.015625,-0.109375 0.03125,-0.171875 z M 3.734375,-6.125 C 3.828125,-6.46875 3.84375,-6.5 4.28125,-6.5 h 0.953125 c 0.828125,0 1.359375,0.265625 1.359375,0.953125 0,0.390625 -0.203125,1.25 -0.59375,1.609375 -0.5,0.453125 -1.09375,0.53125 -1.53125,0.53125 H 3.0625 Z m 0,0"
               id="id-05958dfc-5f13-40e1-91d4-74bc25c78bb5" />
          </g>
          <g
             id="id-361fcff9-24f0-4e35-b11b-4d12dbd787e2">
            <path
               d="M 3.515625,-1.265625 H 3.28125 c -0.015625,0.15625 -0.09375,0.5625 -0.1875,0.625 C 3.046875,-0.59375 2.515625,-0.59375 2.40625,-0.59375 H 1.125 c 0.734375,-0.640625 0.984375,-0.84375 1.390625,-1.171875 0.515625,-0.40625 1,-0.84375 1,-1.5 0,-0.84375 -0.734375,-1.359375 -1.625,-1.359375 -0.859375,0 -1.453125,0.609375 -1.453125,1.25 0,0.34375 0.296875,0.390625 0.375,0.390625 0.15625,0 0.359375,-0.125 0.359375,-0.375 0,-0.125 -0.046875,-0.375 -0.40625,-0.375 C 0.984375,-4.21875 1.453125,-4.375 1.78125,-4.375 c 0.703125,0 1.0625,0.546875 1.0625,1.109375 0,0.609375 -0.4375,1.078125 -0.65625,1.328125 L 0.515625,-0.265625 C 0.4375,-0.203125 0.4375,-0.1875 0.4375,0 h 2.875 z m 0,0"
               id="id-f2eba1b3-8db4-4ef7-95cb-a4b2cde04353" />
          </g>
        </g>
      </defs>
      <g
         fill="#000000"
         fill-opacity="1"
         id="id-8693dd63-a30b-4abf-8cdb-b3c414aa8cb9"
         transform="translate(-149.118,-127.953)">
        <g
           transform="translate(148.712,134.765)"
           id="g18148">
          <path
             d="M 3.015625,-3.15625 H 4.71875 c 1.40625,0 2.796875,-1.03125 2.796875,-2.140625 0,-0.78125 -0.65625,-1.515625 -1.96875,-1.515625 h -3.21875 c -0.1875,0 -0.296875,0 -0.296875,0.1875 0,0.125 0.078125,0.125 0.28125,0.125 0.125,0 0.3125,0.015625 0.421875,0.015625 0.171875,0.03125 0.21875,0.046875 0.21875,0.171875 0,0.03125 0,0.0625 -0.03125,0.1875 l -1.34375,5.34375 c -0.09375,0.390625 -0.109375,0.46875 -0.90625,0.46875 -0.15625,0 -0.265625,0 -0.265625,0.1875 C 0.40625,0 0.515625,0 0.546875,0 0.828125,0 1.53125,-0.03125 1.8125,-0.03125 c 0.21875,0 0.4375,0.015625 0.640625,0.015625 0.21875,0 0.4375,0.015625 0.640625,0.015625 0.078125,0 0.203125,0 0.203125,-0.203125 0,-0.109375 -0.09375,-0.109375 -0.28125,-0.109375 -0.359375,0 -0.640625,0 -0.640625,-0.171875 0,-0.0625 0.015625,-0.109375 0.03125,-0.171875 z M 3.734375,-6.125 C 3.828125,-6.46875 3.84375,-6.5 4.28125,-6.5 h 0.953125 c 0.828125,0 1.359375,0.265625 1.359375,0.953125 0,0.390625 -0.203125,1.25 -0.59375,1.609375 -0.5,0.453125 -1.09375,0.53125 -1.53125,0.53125 H 3.0625 Z m 0,0"
             id="id-6ba95138-6b76-4d68-b7e1-9f0e1a058561" />
        </g>
      </g>
      <g
         fill="#000000"
         fill-opacity="1"
         id="id-61f7f6e2-7ecc-4338-a369-0def8bebe1a6"
         transform="translate(-149.118,-127.953)">
        <g
           transform="translate(155.108,136.259)"
           id="g18152">
          <path
             d="M 3.515625,-1.265625 H 3.28125 c -0.015625,0.15625 -0.09375,0.5625 -0.1875,0.625 C 3.046875,-0.59375 2.515625,-0.59375 2.40625,-0.59375 H 1.125 c 0.734375,-0.640625 0.984375,-0.84375 1.390625,-1.171875 0.515625,-0.40625 1,-0.84375 1,-1.5 0,-0.84375 -0.734375,-1.359375 -1.625,-1.359375 -0.859375,0 -1.453125,0.609375 -1.453125,1.25 0,0.34375 0.296875,0.390625 0.375,0.390625 0.15625,0 0.359375,-0.125 0.359375,-0.375 0,-0.125 -0.046875,-0.375 -0.40625,-0.375 C 0.984375,-4.21875 1.453125,-4.375 1.78125,-4.375 c 0.703125,0 1.0625,0.546875 1.0625,1.109375 0,0.609375 -0.4375,1.078125 -0.65625,1.328125 L 0.515625,-0.265625 C 0.4375,-0.203125 0.4375,-0.1875 0.4375,0 h 2.875 z m 0,0"
             id="id-38526c24-d4f4-419c-a4f5-ee75bbc70335" />
        </g>
      </g>
    </g>
    <g
       transform="matrix(0.705556,0,0,0.705556,149.73939,74.378706)"
       ns2:version="1.8.2"
       ns2:texconverter="pdflatex"
       ns2:pdfconverter="inkscape"
       ns2:text="$P_4$"
       ns2:preamble="/usr/share/inkscape/extensions/textext/default_packages.tex"
       ns2:scale="2.0"
       ns2:alignment="middle center"
       ns2:stroke-to-path="0"
       ns2:inkscapeversion="1.2.2"
       ns2:jacobian_sqrt="0.705556"
       id="g18442">
      <defs
         id="id-c979ecd4-ccf7-4d04-b086-39e2b32b23bd">
        <g
           id="id-f6830b09-e9ea-4ad7-8f28-8ed827d36440">
          <g
             id="id-7cf4c7d6-9924-478d-9e22-5414e2d70df5">
            <path
               d="M 3.015625,-3.15625 H 4.71875 c 1.40625,0 2.796875,-1.03125 2.796875,-2.140625 0,-0.78125 -0.65625,-1.515625 -1.96875,-1.515625 h -3.21875 c -0.1875,0 -0.296875,0 -0.296875,0.1875 0,0.125 0.078125,0.125 0.28125,0.125 0.125,0 0.3125,0.015625 0.421875,0.015625 0.171875,0.03125 0.21875,0.046875 0.21875,0.171875 0,0.03125 0,0.0625 -0.03125,0.1875 l -1.34375,5.34375 c -0.09375,0.390625 -0.109375,0.46875 -0.90625,0.46875 -0.15625,0 -0.265625,0 -0.265625,0.1875 C 0.40625,0 0.515625,0 0.546875,0 0.828125,0 1.53125,-0.03125 1.8125,-0.03125 c 0.21875,0 0.4375,0.015625 0.640625,0.015625 0.21875,0 0.4375,0.015625 0.640625,0.015625 0.078125,0 0.203125,0 0.203125,-0.203125 0,-0.109375 -0.09375,-0.109375 -0.28125,-0.109375 -0.359375,0 -0.640625,0 -0.640625,-0.171875 0,-0.0625 0.015625,-0.109375 0.03125,-0.171875 z M 3.734375,-6.125 C 3.828125,-6.46875 3.84375,-6.5 4.28125,-6.5 h 0.953125 c 0.828125,0 1.359375,0.265625 1.359375,0.953125 0,0.390625 -0.203125,1.25 -0.59375,1.609375 -0.5,0.453125 -1.09375,0.53125 -1.53125,0.53125 H 3.0625 Z m 0,0"
               id="id-a8c470fa-14a5-45fe-b386-7897d7b6780f" />
          </g>
          <g
             id="id-4c6a355e-7db5-4cb6-9462-4cc964750284">
            <path
               d="m 3.6875,-1.140625 v -0.25 H 2.90625 V -4.5 c 0,-0.140625 0,-0.203125 -0.140625,-0.203125 -0.09375,0 -0.125,0 -0.1875,0.109375 l -2.3125,3.203125 v 0.25 h 2.0625 v 0.5625 c 0,0.25 0,0.328125 -0.578125,0.328125 H 1.5625 V 0 C 1.921875,-0.015625 2.359375,-0.03125 2.609375,-0.03125 2.875,-0.03125 3.3125,-0.015625 3.671875,0 v -0.25 h -0.1875 C 2.90625,-0.25 2.90625,-0.328125 2.90625,-0.578125 v -0.5625 z M 2.375,-3.9375 v 2.546875 H 0.53125 Z m 0,0"
               id="id-4964e8db-a5e7-4ce0-a214-48ce25f3ff57" />
          </g>
        </g>
      </defs>
      <g
         fill="#000000"
         fill-opacity="1"
         id="id-cc33b1c9-e9e0-496c-aa71-884245374c47"
         transform="translate(-149.118,-127.953)">
        <g
           transform="translate(148.712,134.765)"
           id="g18435">
          <path
             d="M 3.015625,-3.15625 H 4.71875 c 1.40625,0 2.796875,-1.03125 2.796875,-2.140625 0,-0.78125 -0.65625,-1.515625 -1.96875,-1.515625 h -3.21875 c -0.1875,0 -0.296875,0 -0.296875,0.1875 0,0.125 0.078125,0.125 0.28125,0.125 0.125,0 0.3125,0.015625 0.421875,0.015625 0.171875,0.03125 0.21875,0.046875 0.21875,0.171875 0,0.03125 0,0.0625 -0.03125,0.1875 l -1.34375,5.34375 c -0.09375,0.390625 -0.109375,0.46875 -0.90625,0.46875 -0.15625,0 -0.265625,0 -0.265625,0.1875 C 0.40625,0 0.515625,0 0.546875,0 0.828125,0 1.53125,-0.03125 1.8125,-0.03125 c 0.21875,0 0.4375,0.015625 0.640625,0.015625 0.21875,0 0.4375,0.015625 0.640625,0.015625 0.078125,0 0.203125,0 0.203125,-0.203125 0,-0.109375 -0.09375,-0.109375 -0.28125,-0.109375 -0.359375,0 -0.640625,0 -0.640625,-0.171875 0,-0.0625 0.015625,-0.109375 0.03125,-0.171875 z M 3.734375,-6.125 C 3.828125,-6.46875 3.84375,-6.5 4.28125,-6.5 h 0.953125 c 0.828125,0 1.359375,0.265625 1.359375,0.953125 0,0.390625 -0.203125,1.25 -0.59375,1.609375 -0.5,0.453125 -1.09375,0.53125 -1.53125,0.53125 H 3.0625 Z m 0,0"
             id="id-b8c0a2b1-b4c8-4291-a6be-ffbb9766589d" />
        </g>
      </g>
      <g
         fill="#000000"
         fill-opacity="1"
         id="id-dcc34685-3b7d-4e4c-9b07-cd9ace43b0af"
         transform="translate(-149.118,-127.953)">
        <g
           transform="translate(155.108,136.259)"
           id="g18439">
          <path
             d="m 3.6875,-1.140625 v -0.25 H 2.90625 V -4.5 c 0,-0.140625 0,-0.203125 -0.140625,-0.203125 -0.09375,0 -0.125,0 -0.1875,0.109375 l -2.3125,3.203125 v 0.25 h 2.0625 v 0.5625 c 0,0.25 0,0.328125 -0.578125,0.328125 H 1.5625 V 0 C 1.921875,-0.015625 2.359375,-0.03125 2.609375,-0.03125 2.875,-0.03125 3.3125,-0.015625 3.671875,0 v -0.25 h -0.1875 C 2.90625,-0.25 2.90625,-0.328125 2.90625,-0.578125 v -0.5625 z M 2.375,-3.9375 v 2.546875 H 0.53125 Z m 0,0"
             id="id-8e7efd51-939e-432e-8985-640b7198d40a" />
        </g>
      </g>
    </g>
    <g
       transform="matrix(0.705556,0,0,0.705556,80.394545,58.946227)"
       ns2:version="1.8.2"
       ns2:texconverter="pdflatex"
       ns2:pdfconverter="inkscape"
       ns2:text="$P_5$"
       ns2:preamble="/usr/share/inkscape/extensions/textext/default_packages.tex"
       ns2:scale="2.0"
       ns2:alignment="middle center"
       ns2:stroke-to-path="0"
       ns2:inkscapeversion="1.2.2"
       ns2:jacobian_sqrt="0.705556"
       id="g18755">
      <defs
         id="id-38d17c94-1e88-4f6c-be63-3e63393496d2">
        <g
           id="id-58cf8d7b-eb0e-4f5d-ab5a-f2f87e186477">
          <g
             id="id-45a496e9-8b57-4e69-8138-76066da4933c">
            <path
               d="M 3.015625,-3.15625 H 4.71875 c 1.40625,0 2.796875,-1.03125 2.796875,-2.140625 0,-0.78125 -0.65625,-1.515625 -1.96875,-1.515625 h -3.21875 c -0.1875,0 -0.296875,0 -0.296875,0.1875 0,0.125 0.078125,0.125 0.28125,0.125 0.125,0 0.3125,0.015625 0.421875,0.015625 0.171875,0.03125 0.21875,0.046875 0.21875,0.171875 0,0.03125 0,0.0625 -0.03125,0.1875 l -1.34375,5.34375 c -0.09375,0.390625 -0.109375,0.46875 -0.90625,0.46875 -0.15625,0 -0.265625,0 -0.265625,0.1875 C 0.40625,0 0.515625,0 0.546875,0 0.828125,0 1.53125,-0.03125 1.8125,-0.03125 c 0.21875,0 0.4375,0.015625 0.640625,0.015625 0.21875,0 0.4375,0.015625 0.640625,0.015625 0.078125,0 0.203125,0 0.203125,-0.203125 0,-0.109375 -0.09375,-0.109375 -0.28125,-0.109375 -0.359375,0 -0.640625,0 -0.640625,-0.171875 0,-0.0625 0.015625,-0.109375 0.03125,-0.171875 z M 3.734375,-6.125 C 3.828125,-6.46875 3.84375,-6.5 4.28125,-6.5 h 0.953125 c 0.828125,0 1.359375,0.265625 1.359375,0.953125 0,0.390625 -0.203125,1.25 -0.59375,1.609375 -0.5,0.453125 -1.09375,0.53125 -1.53125,0.53125 H 3.0625 Z m 0,0"
               id="id-e8aa15c9-ea68-479d-a91d-b54f9996503e" />
          </g>
          <g
             id="id-0958baaf-adf0-4dcf-8404-862dc90f837d">
            <path
               d="m 1.078125,-3.890625 c 0.359375,0.09375 0.5625,0.09375 0.671875,0.09375 0.921875,0 1.46875,-0.625 1.46875,-0.734375 0,-0.078125 -0.046875,-0.09375 -0.078125,-0.09375 -0.015625,0 -0.03125,0 -0.0625,0.015625 -0.171875,0.0625 -0.53125,0.203125 -1.046875,0.203125 -0.203125,0 -0.5625,-0.015625 -1.015625,-0.1875 C 0.9375,-4.625 0.921875,-4.625 0.921875,-4.625 c -0.09375,0 -0.09375,0.078125 -0.09375,0.1875 v 2.046875 c 0,0.125 0,0.203125 0.109375,0.203125 0.0625,0 0.078125,0 0.140625,-0.09375 0.296875,-0.375 0.734375,-0.4375 0.96875,-0.4375 0.421875,0 0.609375,0.328125 0.640625,0.390625 0.125,0.234375 0.171875,0.5 0.171875,0.90625 0,0.203125 0,0.609375 -0.21875,0.921875 -0.171875,0.25 -0.46875,0.421875 -0.8125,0.421875 -0.453125,0 -0.921875,-0.25 -1.09375,-0.71875 0.265625,0.015625 0.40625,-0.15625 0.40625,-0.34375 0,-0.296875 -0.265625,-0.34375 -0.359375,-0.34375 0,0 -0.34375,0 -0.34375,0.375 0,0.625 0.578125,1.25 1.40625,1.25 0.890625,0 1.671875,-0.65625 1.671875,-1.546875 0,-0.78125 -0.59375,-1.5 -1.453125,-1.5 -0.3125,0 -0.671875,0.0625 -0.984375,0.328125 z m 0,0"
               id="id-0bf1d85b-95d8-4ec2-9169-8a7d1e4de844" />
          </g>
        </g>
      </defs>
      <g
         fill="#000000"
         fill-opacity="1"
         id="id-5cbf9207-9b95-4cf8-a273-6cd5605097b8"
         transform="translate(-149.118,-127.953)">
        <g
           transform="translate(148.712,134.765)"
           id="g18748">
          <path
             d="M 3.015625,-3.15625 H 4.71875 c 1.40625,0 2.796875,-1.03125 2.796875,-2.140625 0,-0.78125 -0.65625,-1.515625 -1.96875,-1.515625 h -3.21875 c -0.1875,0 -0.296875,0 -0.296875,0.1875 0,0.125 0.078125,0.125 0.28125,0.125 0.125,0 0.3125,0.015625 0.421875,0.015625 0.171875,0.03125 0.21875,0.046875 0.21875,0.171875 0,0.03125 0,0.0625 -0.03125,0.1875 l -1.34375,5.34375 c -0.09375,0.390625 -0.109375,0.46875 -0.90625,0.46875 -0.15625,0 -0.265625,0 -0.265625,0.1875 C 0.40625,0 0.515625,0 0.546875,0 0.828125,0 1.53125,-0.03125 1.8125,-0.03125 c 0.21875,0 0.4375,0.015625 0.640625,0.015625 0.21875,0 0.4375,0.015625 0.640625,0.015625 0.078125,0 0.203125,0 0.203125,-0.203125 0,-0.109375 -0.09375,-0.109375 -0.28125,-0.109375 -0.359375,0 -0.640625,0 -0.640625,-0.171875 0,-0.0625 0.015625,-0.109375 0.03125,-0.171875 z M 3.734375,-6.125 C 3.828125,-6.46875 3.84375,-6.5 4.28125,-6.5 h 0.953125 c 0.828125,0 1.359375,0.265625 1.359375,0.953125 0,0.390625 -0.203125,1.25 -0.59375,1.609375 -0.5,0.453125 -1.09375,0.53125 -1.53125,0.53125 H 3.0625 Z m 0,0"
             id="id-7f353fe7-4eb1-49a9-80a3-6c9b68ad0c97" />
        </g>
      </g>
      <g
         fill="#000000"
         fill-opacity="1"
         id="id-66c19126-1c45-4d0e-a60f-95152b6a0a92"
         transform="translate(-149.118,-127.953)">
        <g
           transform="translate(155.108,136.259)"
           id="g18752">
          <path
             d="m 1.078125,-3.890625 c 0.359375,0.09375 0.5625,0.09375 0.671875,0.09375 0.921875,0 1.46875,-0.625 1.46875,-0.734375 0,-0.078125 -0.046875,-0.09375 -0.078125,-0.09375 -0.015625,0 -0.03125,0 -0.0625,0.015625 -0.171875,0.0625 -0.53125,0.203125 -1.046875,0.203125 -0.203125,0 -0.5625,-0.015625 -1.015625,-0.1875 C 0.9375,-4.625 0.921875,-4.625 0.921875,-4.625 c -0.09375,0 -0.09375,0.078125 -0.09375,0.1875 v 2.046875 c 0,0.125 0,0.203125 0.109375,0.203125 0.0625,0 0.078125,0 0.140625,-0.09375 0.296875,-0.375 0.734375,-0.4375 0.96875,-0.4375 0.421875,0 0.609375,0.328125 0.640625,0.390625 0.125,0.234375 0.171875,0.5 0.171875,0.90625 0,0.203125 0,0.609375 -0.21875,0.921875 -0.171875,0.25 -0.46875,0.421875 -0.8125,0.421875 -0.453125,0 -0.921875,-0.25 -1.09375,-0.71875 0.265625,0.015625 0.40625,-0.15625 0.40625,-0.34375 0,-0.296875 -0.265625,-0.34375 -0.359375,-0.34375 0,0 -0.34375,0 -0.34375,0.375 0,0.625 0.578125,1.25 1.40625,1.25 0.890625,0 1.671875,-0.65625 1.671875,-1.546875 0,-0.78125 -0.59375,-1.5 -1.453125,-1.5 -0.3125,0 -0.671875,0.0625 -0.984375,0.328125 z m 0,0"
             id="id-05fae27e-8bd2-424a-9232-5e79694b9a69" />
        </g>
      </g>
    </g>
    <g
       transform="matrix(0.705556,0,0,0.705556,129.46164,105.22464)"
       ns2:version="1.8.2"
       ns2:texconverter="pdflatex"
       ns2:pdfconverter="inkscape"
       ns2:text="$P_3$"
       ns2:preamble="/usr/share/inkscape/extensions/textext/default_packages.tex"
       ns2:scale="2.0"
       ns2:alignment="middle center"
       ns2:stroke-to-path="0"
       ns2:inkscapeversion="1.2.2"
       ns2:jacobian_sqrt="0.705556"
       id="g19993">
      <defs
         id="id-06611e4e-31e7-43c6-a595-2c103b8c21b7">
        <g
           id="id-9d4855bf-619c-46d0-994e-12c3313fa1d4">
          <g
             id="id-088dd204-af12-4e84-b9aa-6d8e5d1bac22">
            <path
               d="M 3.015625,-3.15625 H 4.71875 c 1.40625,0 2.796875,-1.03125 2.796875,-2.140625 0,-0.78125 -0.65625,-1.515625 -1.96875,-1.515625 h -3.21875 c -0.1875,0 -0.296875,0 -0.296875,0.1875 0,0.125 0.078125,0.125 0.28125,0.125 0.125,0 0.3125,0.015625 0.421875,0.015625 0.171875,0.03125 0.21875,0.046875 0.21875,0.171875 0,0.03125 0,0.0625 -0.03125,0.1875 l -1.34375,5.34375 c -0.09375,0.390625 -0.109375,0.46875 -0.90625,0.46875 -0.15625,0 -0.265625,0 -0.265625,0.1875 C 0.40625,0 0.515625,0 0.546875,0 0.828125,0 1.53125,-0.03125 1.8125,-0.03125 c 0.21875,0 0.4375,0.015625 0.640625,0.015625 0.21875,0 0.4375,0.015625 0.640625,0.015625 0.078125,0 0.203125,0 0.203125,-0.203125 0,-0.109375 -0.09375,-0.109375 -0.28125,-0.109375 -0.359375,0 -0.640625,0 -0.640625,-0.171875 0,-0.0625 0.015625,-0.109375 0.03125,-0.171875 z M 3.734375,-6.125 C 3.828125,-6.46875 3.84375,-6.5 4.28125,-6.5 h 0.953125 c 0.828125,0 1.359375,0.265625 1.359375,0.953125 0,0.390625 -0.203125,1.25 -0.59375,1.609375 -0.5,0.453125 -1.09375,0.53125 -1.53125,0.53125 H 3.0625 Z m 0,0"
               id="id-855d2e94-4ab8-44f5-98e8-8f7394047846" />
          </g>
          <g
             id="id-1bb7afd8-015f-4b27-a78e-e2fce99adb0b">
            <path
               d="m 1.90625,-2.328125 c 0.546875,0 0.9375,0.375 0.9375,1.125 0,0.859375 -0.515625,1.125 -0.90625,1.125 -0.28125,0 -0.90625,-0.078125 -1.1875,-0.5 0.328125,0 0.40625,-0.234375 0.40625,-0.390625 0,-0.21875 -0.171875,-0.375 -0.390625,-0.375 -0.1875,0 -0.390625,0.125 -0.390625,0.40625 0,0.65625 0.71875,1.078125 1.5625,1.078125 0.96875,0 1.640625,-0.65625 1.640625,-1.34375 0,-0.546875 -0.4375,-1.09375 -1.203125,-1.25 0.71875,-0.265625 0.984375,-0.78125 0.984375,-1.21875 0,-0.546875 -0.625,-0.953125 -1.40625,-0.953125 -0.765625,0 -1.359375,0.375 -1.359375,0.9375 0,0.234375 0.15625,0.359375 0.359375,0.359375 0.21875,0 0.359375,-0.15625 0.359375,-0.34375 0,-0.203125 -0.140625,-0.359375 -0.359375,-0.375 0.25,-0.296875 0.71875,-0.375 0.984375,-0.375 0.3125,0 0.75,0.15625 0.75,0.75 0,0.296875 -0.09375,0.625 -0.28125,0.828125 -0.21875,0.265625 -0.421875,0.28125 -0.765625,0.3125 -0.171875,0.015625 -0.1875,0.015625 -0.21875,0.015625 -0.015625,0 -0.078125,0.015625 -0.078125,0.09375 0,0.09375 0.0625,0.09375 0.1875,0.09375 z m 0,0"
               id="id-9ae07004-b91a-4112-86e0-012188bc3dbb" />
          </g>
        </g>
      </defs>
      <g
         fill="#000000"
         fill-opacity="1"
         id="id-90fc723f-e62f-43b6-97a2-f7c00d462f26"
         transform="translate(-149.118,-127.953)">
        <g
           transform="translate(148.712,134.765)"
           id="g19986">
          <path
             d="M 3.015625,-3.15625 H 4.71875 c 1.40625,0 2.796875,-1.03125 2.796875,-2.140625 0,-0.78125 -0.65625,-1.515625 -1.96875,-1.515625 h -3.21875 c -0.1875,0 -0.296875,0 -0.296875,0.1875 0,0.125 0.078125,0.125 0.28125,0.125 0.125,0 0.3125,0.015625 0.421875,0.015625 0.171875,0.03125 0.21875,0.046875 0.21875,0.171875 0,0.03125 0,0.0625 -0.03125,0.1875 l -1.34375,5.34375 c -0.09375,0.390625 -0.109375,0.46875 -0.90625,0.46875 -0.15625,0 -0.265625,0 -0.265625,0.1875 C 0.40625,0 0.515625,0 0.546875,0 0.828125,0 1.53125,-0.03125 1.8125,-0.03125 c 0.21875,0 0.4375,0.015625 0.640625,0.015625 0.21875,0 0.4375,0.015625 0.640625,0.015625 0.078125,0 0.203125,0 0.203125,-0.203125 0,-0.109375 -0.09375,-0.109375 -0.28125,-0.109375 -0.359375,0 -0.640625,0 -0.640625,-0.171875 0,-0.0625 0.015625,-0.109375 0.03125,-0.171875 z M 3.734375,-6.125 C 3.828125,-6.46875 3.84375,-6.5 4.28125,-6.5 h 0.953125 c 0.828125,0 1.359375,0.265625 1.359375,0.953125 0,0.390625 -0.203125,1.25 -0.59375,1.609375 -0.5,0.453125 -1.09375,0.53125 -1.53125,0.53125 H 3.0625 Z m 0,0"
             id="id-c4c30a58-2c7c-48cc-a193-a0b66683b353" />
        </g>
      </g>
      <g
         fill="#000000"
         fill-opacity="1"
         id="id-1f8f99a0-6e8b-4bf6-a84c-e4dc984eed9e"
         transform="translate(-149.118,-127.953)">
        <g
           transform="translate(155.108,136.259)"
           id="g19990">
          <path
             d="m 1.90625,-2.328125 c 0.546875,0 0.9375,0.375 0.9375,1.125 0,0.859375 -0.515625,1.125 -0.90625,1.125 -0.28125,0 -0.90625,-0.078125 -1.1875,-0.5 0.328125,0 0.40625,-0.234375 0.40625,-0.390625 0,-0.21875 -0.171875,-0.375 -0.390625,-0.375 -0.1875,0 -0.390625,0.125 -0.390625,0.40625 0,0.65625 0.71875,1.078125 1.5625,1.078125 0.96875,0 1.640625,-0.65625 1.640625,-1.34375 0,-0.546875 -0.4375,-1.09375 -1.203125,-1.25 0.71875,-0.265625 0.984375,-0.78125 0.984375,-1.21875 0,-0.546875 -0.625,-0.953125 -1.40625,-0.953125 -0.765625,0 -1.359375,0.375 -1.359375,0.9375 0,0.234375 0.15625,0.359375 0.359375,0.359375 0.21875,0 0.359375,-0.15625 0.359375,-0.34375 0,-0.203125 -0.140625,-0.359375 -0.359375,-0.375 0.25,-0.296875 0.71875,-0.375 0.984375,-0.375 0.3125,0 0.75,0.15625 0.75,0.75 0,0.296875 -0.09375,0.625 -0.28125,0.828125 -0.21875,0.265625 -0.421875,0.28125 -0.765625,0.3125 -0.171875,0.015625 -0.1875,0.015625 -0.21875,0.015625 -0.015625,0 -0.078125,0.015625 -0.078125,0.09375 0,0.09375 0.0625,0.09375 0.1875,0.09375 z m 0,0"
             id="id-c0e081dc-238f-48da-83db-e23e6b6d7c0a" />
        </g>
      </g>
    </g>
    <circle
       style="fill:#ffffff;stroke:none;stroke-width:0.499999;stroke-linecap:round;stroke-linejoin:round;stroke-dasharray:none;stroke-dashoffset:0;stroke-opacity:1"
       id="path20236"
       cx="144.34923"
       cy="71.504539"
       r="1.4555146" />
    <circle
       style="fill:#ffffff;stroke:none;stroke-width:0.499999;stroke-linecap:round;stroke-linejoin:round;stroke-dasharray:none;stroke-dashoffset:0;stroke-opacity:1"
       id="path20236-0"
       cx="89.877815"
       cy="56.819881"
       r="1.4555146" />
    <circle
       style="fill:#ffffff;stroke:none;stroke-width:0.499999;stroke-linecap:round;stroke-linejoin:round;stroke-dasharray:none;stroke-dashoffset:0;stroke-opacity:1"
       id="path20236-3"
       cx="123.98014"
       cy="110.42087"
       r="1.4555146" />
    <circle
       style="fill:#ffffff;stroke:none;stroke-width:0.499999;stroke-linecap:round;stroke-linejoin:round;stroke-dasharray:none;stroke-dashoffset:0;stroke-opacity:1"
       id="path20236-6"
       cx="131.58441"
       cy="117.47468"
       r="1.4555146" />
    <circle
       style="fill:none;stroke:#666666;stroke-width:0.5;stroke-linejoin:round;stroke-dasharray:none;stroke-dashoffset:0"
       id="path294-0"
       cx="117.75573"
       cy="128.87309"
       r="11.048215" />
    <path
       style="fill:none;stroke:#000000;stroke-width:0.264583px;stroke-linecap:butt;stroke-linejoin:miter;stroke-opacity:1"
       d="M 30.532059,168.97009 H 158.81987"
       id="path20781" />
  </g>
</svg>
